<?xml version="1.0" encoding="utf-8"?>
<!-- Generator: Adobe Illustrator 19.2.0, SVG Export Plug-In . SVG Version: 6.00 Build 0)  -->
<svg version="1.1" id="Layer_2" xmlns="http://www.w3.org/2000/svg" xmlns:xlink="http://www.w3.org/1999/xlink" x="0px" y="0px"
	 viewBox="0 0 407.4 645.5" style="enable-background:new 0 0 407.4 645.5;" xml:space="preserve">
<style type="text/css">
	.st0{fill:#E0E0E0;}
	.st1{fill:#AD2383;}
	.st2{fill:#C9C9C9;}
	.st3{opacity:0.1;fill:#FFFFFF;}
	.st4{fill:#EAADDF;}
</style>
<path class="st0" d="M271.5,249.7l0.5,0c-7.7-3-12.7-6.3-12.7-15.7c-0.1-69.8-0.5-106.6-0.9-176.4c0-7.1,2-10.9,9.9-12.1
	c16.2-2.5,22.9-10.9,21.8-25.1c-1-13-9.1-20.2-25.3-20.3C222-0.1,179.2,0,136.4,0.5c-14.4,0.2-24.2,9.2-25,21.4
	c-0.9,13.1,6.3,21.9,21.7,24.1c8,1.1,11.3,4.3,12.3,12v0c0,68.9-0.1,104.6,0.4,173.4c0.1,8.4-1.5,14-8.2,17.7
	C57.6,276.6,0,352.4,0,441.8c0,112.5,91.2,203.7,203.7,203.7c112.5,0,203.7-91.2,203.7-203.7C407.4,353.1,350.6,277.7,271.5,249.7z"
	/>
<path class="st1" d="M22.7,406c-2.4,11-3.7,23.7-3.7,36.2c0,101.9,82.6,184.3,184.6,184.3s184.6-82.3,184.6-184.2
	c0-12.6-1.3-25.4-3.7-36.4H22.7z"/>
<path class="st2" d="M270,45.5c16.2-2.5,22.9-10.9,21.8-25.1c-1-13-9.1-20.2-25.3-20.3C223.6-0.1,180.8,0,137.9,0.5
	c-14.4,0.2-24.2,9.2-25,21.4c-0.9,13.1,6.4,21.9,21.9,24.1"/>
<path class="st3" d="M180.4,45.8L135.6,46c6,1.8,8.8,5.2,9.8,12v0c0,68.9-0.1,104.6,0.4,173.4c0.1,8.4-1.5,14-8.2,17.7
	C57.6,276.6-0.1,352.5-0.1,441.8c0,104.7,79.5,191,180.5,202.4V45.8z"/>
<path class="st4" d="M45.8,387.8c2.3-1.1,4.7-2.2,5.5,0.7c-6.9,52.3,2.4,100.9,32.3,145.1c11.4,16.7,26,30.2,40.5,44
	c-7.2,1.4-14.3,2.1-21.4-0.1c-7.1-7.3-14.4-14.3-21.2-21.9c-38-42.5-52.5-91.9-43.2-148.2C40.9,391.5,42.3,390.1,45.8,387.8"/>
</svg>
